<svg width="74" height="74" viewBox="0 0 74 74" fill="none" xmlns="http://www.w3.org/2000/svg">
<circle cx="37" cy="37" r="37" fill="#DF2027"/>
<path d="M44.9286 24.0368C42.6891 22.6666 40.1328 21.9 37.509 21.8117C34.8851 21.7234 32.2831 22.3163 29.9565 23.5328C27.63 24.7492 25.6583 26.5477 24.2336 28.7528C22.8088 30.958 21.9797 33.4946 21.827 36.1155C21.6743 38.7364 22.2032 41.3522 23.3621 43.7079C24.5211 46.0636 26.2706 48.0789 28.4401 49.5573C30.6096 51.0358 33.1251 51.9269 35.7415 52.144C38.3578 52.361 40.9858 51.8965 43.3693 50.7957L47.1552 52.1502C47.279 52.1928 47.4113 52.2049 47.5407 52.1853C47.6702 52.1658 47.7931 52.1153 47.8988 52.0381C48.0046 51.9609 48.0901 51.8593 48.1482 51.7419C48.2062 51.6245 48.235 51.4948 48.2321 51.3639V47.2345C50.7857 44.435 52.2013 40.7825 52.2013 36.9934C52.2013 33.2042 50.7857 29.5518 48.2321 26.7523" stroke="white" stroke-width="3" stroke-linecap="round" stroke-linejoin="round"/>
<path d="M29.7319 37H44.2676" stroke="white" stroke-width="3" stroke-linecap="round" stroke-linejoin="round"/>
<path d="M29.7319 41.625H40.3034" stroke="white" stroke-width="3" stroke-linecap="round" stroke-linejoin="round"/>
<path d="M29.7319 32.375H42.9462" stroke="white" stroke-width="3" stroke-linecap="round" stroke-linejoin="round"/>
</svg>
