<svg width="74" height="74" viewBox="0 0 74 74" fill="none" xmlns="http://www.w3.org/2000/svg">
<circle cx="37" cy="37" r="37" fill="#DF2027"/>
<path d="M44.9286 24.0369C42.6891 22.6668 40.1328 21.9002 37.509 21.8118C34.8851 21.7235 32.2831 22.3165 29.9565 23.5329C27.63 24.7493 25.6583 26.5478 24.2336 28.7529C22.8088 30.9581 21.9797 33.4947 21.827 36.1156C21.6743 38.7365 22.2032 41.3523 23.3621 43.708C24.5211 46.0637 26.2706 48.079 28.4401 49.5575C30.6096 51.0359 33.1251 51.927 35.7415 52.1441C38.3578 52.3611 40.9858 51.8966 43.3693 50.7958L47.1552 52.1503C47.279 52.1929 47.4113 52.205 47.5407 52.1855C47.6702 52.166 47.7931 52.1154 47.8988 52.0382C48.0046 51.961 48.0901 51.8594 48.1482 51.742C48.2062 51.6246 48.235 51.495 48.2321 51.3641V47.2346C50.7857 44.4351 52.2013 40.7827 52.2013 36.9935C52.2013 33.2044 50.7857 29.5519 48.2321 26.7524" stroke="white" stroke-width="3" stroke-linecap="round" stroke-linejoin="round"/>
<path d="M29.7319 37H44.2676" stroke="white" stroke-width="3" stroke-linecap="round" stroke-linejoin="round"/>
<path d="M29.7319 41.625H40.3034" stroke="white" stroke-width="3" stroke-linecap="round" stroke-linejoin="round"/>
<path d="M29.7319 32.375H42.9462" stroke="white" stroke-width="3" stroke-linecap="round" stroke-linejoin="round"/>
</svg>
