<svg width="40" height="40" viewBox="0 0 40 40" fill="none" xmlns="http://www.w3.org/2000/svg">
<circle cx="20" cy="20" r="19.5" stroke="#606F86"/>
<path d="M25.8762 12.8093C24.2954 12.8312 24.0726 15.0935 25.6187 15.423C27.5131 15.7114 27.7898 12.8974 25.8762 12.8093ZM30.9348 15.47C30.8862 13.7941 30.3953 12.0402 29.1532 10.8524C27.9693 9.61445 26.2058 9.12417 24.5342 9.0713C23.626 8.97623 16.3796 8.97623 15.472 9.0713C13.7993 9.12471 12.0406 9.61819 10.853 10.8524C9.6141 12.0365 9.12421 13.7994 9.07132 15.47C8.97623 16.3779 8.97623 23.6226 9.07132 24.5295C9.12474 26.2006 9.61464 27.9641 10.853 29.1476C12.0406 30.3818 13.7993 30.8774 15.472 30.9287C16.3802 31.0238 23.6271 31.0238 24.5342 30.9287C26.2058 30.8753 27.9693 30.3856 29.1532 29.1476C30.3995 27.9635 30.8841 26.2048 30.9348 24.5295C30.9755 23.6237 31.0583 16.3801 30.9354 15.47H30.9348ZM28.9555 24.3975C28.9224 25.581 28.643 26.8628 27.7567 27.7088C26.9062 28.5889 25.632 28.8773 24.4444 28.9072C23.6004 28.9932 16.4913 29.0071 15.6461 28.9072C14.9214 28.9206 14.1998 28.8089 13.5129 28.5772C13.0584 28.3874 12.6478 28.1061 12.3066 27.751C11.9417 27.3978 11.6633 26.9652 11.493 26.4868C11.2243 25.8218 11.0753 25.1145 11.0528 24.3975C11.0133 23.5537 10.9289 16.4495 11.0528 15.6019C11.0579 14.8885 11.1883 14.1815 11.438 13.5132C11.6316 13.0492 11.9287 12.6356 12.3066 12.304C12.6409 11.926 13.0539 11.6258 13.5167 11.4244C14.1869 11.1824 14.8935 11.056 15.6061 11.0506C16.7061 11.0506 17.1126 10.9843 20.0055 10.9843C22.8984 10.9843 23.3049 10.9843 24.4044 11.0506C25.6101 11.0826 26.9206 11.3758 27.7588 12.304C28.1194 12.6415 28.401 13.0544 28.5837 13.5132C28.8281 14.1826 28.9546 14.8893 28.9576 15.6019C29.0469 16.4468 29.0469 23.5526 28.956 24.3975H28.9555ZM20.0039 14.3597C16.5244 14.3063 13.74 17.7078 14.4826 21.1071C15.4624 26.0046 21.933 27.2863 24.7067 23.1323C27.2118 19.4195 24.4872 14.3223 20.0039 14.3597ZM20.0039 23.6611C17.766 23.7182 15.9186 21.4714 16.4117 19.2854C17.0309 16.1109 21.2615 15.2692 23.049 17.9663C24.6811 20.3445 22.8888 23.6968 20.0039 23.6611Z" fill="#606F86"/>
</svg>
