<svg width="40" height="40" viewBox="0 0 40 40" fill="none" xmlns="http://www.w3.org/2000/svg">
<g clip-path="url(#clip0_460_9)">
<path d="M18.3616 40C17.9 39.8277 17.4132 39.853 16.939 39.774C11.8533 38.9393 7.68229 36.5298 4.42602 32.5454C2.34532 30.0233 0.947539 27.0089 0.366745 23.7914C-0.630686 18.3173 0.396779 13.2322 3.56295 8.64336C6.40824 4.51769 10.3079 1.82731 15.1749 0.60542C24.9437 -1.85101 34.9575 3.35903 38.6564 12.7896C39.3565 14.5495 39.783 16.4062 39.921 18.2952C39.921 18.3569 39.9115 18.428 39.9984 18.4533V21.6558C39.9131 21.6764 39.9226 21.7459 39.9194 21.8139C39.879 22.4743 39.7908 23.131 39.6554 23.7787C38.8018 28.0672 36.7943 31.7234 33.5823 34.6951C30.6655 37.4228 26.9886 39.1995 23.0389 39.7898C22.5236 39.8704 21.9957 39.8498 21.493 40.0095L18.3616 40ZM19.9882 38.1711C29.9735 38.2122 38.1142 30.1095 38.1537 20.034C38.1778 17.6356 37.7265 15.2562 36.8257 13.0333C35.925 10.8103 34.5927 8.78789 32.9059 7.08278C31.219 5.37766 29.2111 4.02367 26.998 3.09901C24.7849 2.17436 22.4105 1.69737 20.012 1.69559C17.6135 1.69382 15.2384 2.16729 13.0239 3.08867C10.8095 4.01005 8.79951 5.36107 7.11016 7.06369C5.42081 8.7663 4.08555 10.7868 3.18152 13.0084C2.27749 15.23 1.8226 17.6087 1.84313 20.0071C1.82733 30.021 9.93323 38.1284 19.9882 38.1711Z" fill="white"/>
<path d="M21.8265 18.6935C22.775 17.3325 24.1107 17.146 25.5459 17.361C26.6525 17.5191 27.3069 18.2794 27.7289 19.2579C28.083 20.083 28.181 20.9603 28.1889 21.8439C28.2047 23.5479 28.1889 25.2519 28.2 26.9544C28.2 27.2025 28.1446 27.2863 27.8838 27.2816C26.8701 27.2658 25.8558 27.2658 24.8409 27.2816C24.5722 27.2816 24.5248 27.1931 24.5248 26.9528C24.5343 25.3268 24.5343 23.7013 24.5248 22.0763C24.522 21.7644 24.5008 21.453 24.4616 21.1437C24.381 20.4987 24.079 20.1431 23.5463 20.0372C23.2773 19.989 22.9999 20.0237 22.751 20.1366C22.502 20.2495 22.2932 20.4353 22.1522 20.6694C21.8787 21.1057 21.8234 21.591 21.8234 22.0921C21.8234 23.7044 21.8234 25.3183 21.8234 26.9307C21.8234 27.1899 21.7791 27.2863 21.493 27.28C20.4908 27.261 19.4902 27.2658 18.4896 27.28C18.2494 27.28 18.1593 27.2373 18.1608 26.9638C18.1703 23.8298 18.1703 20.6958 18.1608 17.5618C18.1608 17.3152 18.232 17.2614 18.4675 17.2646C19.4823 17.2772 20.4971 17.2804 21.5104 17.2646C21.7807 17.2646 21.8376 17.3499 21.8265 17.5934C21.8139 17.9459 21.8265 18.292 21.8265 18.6935Z" fill="white"/>
<path d="M12.7311 22.2754C12.7311 20.7137 12.7311 19.152 12.7311 17.5902C12.7311 17.3325 12.8006 17.2741 13.0472 17.2741C14.0621 17.2888 15.0769 17.2888 16.0917 17.2741C16.3367 17.2741 16.3952 17.3436 16.3952 17.5807C16.3878 20.7169 16.3878 23.853 16.3952 26.9891C16.3952 27.2405 16.313 27.2895 16.079 27.2863C15.0642 27.2752 14.0494 27.2705 13.0346 27.2863C12.7659 27.2863 12.7184 27.2025 12.7184 26.9591C12.7374 25.3974 12.7311 23.8372 12.7311 22.2754Z" fill="white"/>
<path d="M12.7358 14.5426C12.7349 14.3025 12.7822 14.0648 12.875 13.8434C12.9677 13.622 13.1041 13.4215 13.2759 13.2538C13.4476 13.0862 13.6514 12.9548 13.875 12.8674C14.0985 12.7801 14.3374 12.7385 14.5774 12.7453C15.0549 12.7527 15.5107 12.9461 15.8479 13.2844C16.185 13.6227 16.3768 14.0792 16.3825 14.5568C16.3736 15.0416 16.1767 15.5039 15.8334 15.8463C15.4902 16.1886 15.0273 16.3843 14.5426 16.392C14.0579 16.3858 13.5955 16.1876 13.2568 15.8408C12.9181 15.4941 12.7308 15.0273 12.7358 14.5426Z" fill="white"/>
</g>
<defs>
<clipPath id="clip0_460_9">
<rect width="39.9905" height="40" fill="white"/>
</clipPath>
</defs>
</svg>
