<svg width="40" height="40" viewBox="0 0 40 40" fill="none" xmlns="http://www.w3.org/2000/svg">
<circle cx="20" cy="20" r="19.5" stroke="#606F86"/>
<g clip-path="url(#clip0_512_257)">
<path d="M21.2168 18.0928C22.8137 16.0072 24.8983 15.5984 27.2492 16.0772C29.4425 16.5248 30.4599 18.0644 30.8566 20.1642C31.061 21.2496 30.9869 22.3378 30.9916 23.426C31.0019 25.8012 30.9954 28.1763 30.9944 30.5515C30.9944 30.9754 30.9747 30.9924 30.5574 30.9924C29.3187 30.9906 28.08 30.9801 26.8412 30.9943C26.5271 30.9981 26.4052 30.9177 26.4061 30.577C26.4136 28.2359 26.4099 25.8949 26.3911 23.5538C26.3864 22.9992 26.363 22.4353 26.2561 21.8949C25.972 20.4651 25.0736 19.851 23.6323 20.0402C22.4377 20.1973 21.6547 20.9515 21.5459 22.2242C21.439 23.4894 21.4343 24.7641 21.4174 26.0349C21.3977 27.5575 21.4099 29.081 21.4156 30.6035C21.4165 30.8533 21.3471 30.9896 21.0752 30.9887C19.7464 30.9849 18.4176 30.983 17.0889 30.9906C16.786 30.9924 16.7794 30.807 16.7794 30.5846C16.7794 28.834 16.7747 27.0843 16.7738 25.3337C16.7719 22.5043 16.7719 19.674 16.771 16.8447C16.771 16.2741 16.7794 16.2665 17.328 16.2674C18.488 16.2693 19.6479 16.2778 20.8079 16.2655C21.1145 16.2617 21.2346 16.3621 21.2224 16.6772C21.2036 17.1484 21.2168 17.6206 21.2168 18.0928Z" fill="#606F86"/>
<path d="M14.0133 23.6569C14.0133 25.9289 14.0133 28.2009 14.0133 30.4739C14.0133 30.9707 13.9945 30.9934 13.5013 30.9943C12.2513 30.9972 11.0022 30.9868 9.75224 31.001C9.44561 31.0047 9.36965 30.8836 9.36965 30.5988C9.36965 25.9743 9.36215 21.3499 9.3584 16.7254C9.3584 16.3015 9.39872 16.2674 9.83101 16.2684C11.081 16.2693 12.3301 16.2826 13.5791 16.2665C13.9186 16.2617 14.002 16.3961 14.0011 16.7046C13.9945 19.022 13.9973 21.3395 13.9973 23.6578C14.003 23.6569 14.0076 23.6569 14.0133 23.6569Z" fill="#606F86"/>
<path d="M11.7055 9.0104C13.0211 8.89306 14.3545 10.1516 14.3611 11.6146C14.3677 13.1825 13.1571 14.354 11.6145 14.3644C10.3533 14.373 8.96824 13.2289 9.00106 11.5994C9.02825 10.1999 10.3739 8.86656 11.7055 9.0104Z" fill="#606F86"/>
</g>
<defs>
<clipPath id="clip0_512_257">
<rect width="22" height="22" fill="white" transform="translate(9 9)"/>
</clipPath>
</defs>
</svg>
