<svg width="40" height="40" viewBox="0 0 40 40" fill="none" xmlns="http://www.w3.org/2000/svg">
<path d="M18.3574 39.9905C17.8959 39.8183 17.4092 39.8435 16.9351 39.7645C11.8506 38.9301 7.68056 36.5211 4.42505 32.5376C2.34483 30.0161 0.947379 27.0025 0.36672 23.7857C-0.630478 18.3129 0.396747 13.229 3.56218 8.64121C6.4068 4.51651 10.3055 1.82676 15.1714 0.605156C24.9379 -1.8507 34.9494 3.35812 38.6474 12.7865C39.3474 14.5459 39.7738 16.4022 39.9117 18.2908C39.9117 18.3524 39.9022 18.4235 39.9891 18.4488V21.6506C39.9038 21.6712 39.9133 21.7407 39.9101 21.8086C39.8698 22.469 39.7816 23.1255 39.6462 23.773C38.7928 28.0605 36.7858 31.7158 33.5745 34.6869C30.6584 37.4139 26.9823 39.1902 23.0336 39.7803C22.5184 39.8609 21.9906 39.8404 21.488 40L18.3574 39.9905ZM19.9835 38.1621C29.9666 38.2031 38.1054 30.1023 38.1449 20.0292C38.1689 17.6314 37.7177 15.2525 36.8172 13.0301C35.9166 10.8077 34.5847 8.78571 32.8982 7.081C31.2118 5.37628 29.2043 4.0226 26.9917 3.09817C24.7791 2.17373 22.4053 1.69685 20.0074 1.69507C17.6094 1.6933 15.2349 2.16666 13.021 3.08783C10.807 4.00899 8.79751 5.35969 7.10855 7.06191C5.4196 8.76413 4.08465 10.7841 3.18083 13.0052C2.27701 15.2263 1.82223 17.6045 1.84276 20.0023C1.82696 30.0138 9.93097 38.1194 19.9835 38.1621Z" fill="#616F86"/>
<path d="M21.8215 18.689C22.7697 17.3284 24.1051 17.1419 25.54 17.3568C26.6463 17.5148 27.3005 18.275 27.7225 19.2532C28.0765 20.0782 28.1745 20.9553 28.1824 21.8387C28.1982 23.5423 28.1824 25.2459 28.1934 26.9479C28.1934 27.196 28.1381 27.2798 27.8774 27.2751C26.8638 27.2593 25.8498 27.2593 24.8352 27.2751C24.5665 27.2751 24.5191 27.1866 24.5191 26.9463C24.5286 25.3207 24.5286 23.6956 24.5191 22.071C24.5163 21.7592 24.4952 21.4479 24.4559 21.1386C24.3753 20.4938 24.0735 20.1382 23.5409 20.0323C23.2719 19.9842 22.9946 20.0188 22.7457 20.1317C22.4968 20.2446 22.288 20.4304 22.147 20.6645C21.8736 21.1007 21.8183 21.5858 21.8183 22.0868C21.8183 23.6987 21.8183 25.3123 21.8183 26.9242C21.8183 27.1834 21.7741 27.2798 21.488 27.2735C20.4861 27.2545 19.4857 27.2593 18.4854 27.2735C18.2452 27.2735 18.1551 27.2308 18.1567 26.9574C18.1661 23.8241 18.1661 20.6908 18.1567 17.5575C18.1567 17.311 18.2278 17.2573 18.4633 17.2604C19.4778 17.2731 20.4924 17.2762 21.5054 17.2604C21.7757 17.2604 21.8326 17.3458 21.8215 17.5891C21.8088 17.9415 21.8215 18.2876 21.8215 18.689Z" fill="#616F86"/>
<path d="M12.7282 22.2701C12.7282 20.7087 12.7282 19.1473 12.7282 17.586C12.7282 17.3284 12.7977 17.2699 13.0443 17.2699C14.0588 17.2846 15.0734 17.2846 16.088 17.2699C16.333 17.2699 16.3914 17.3394 16.3914 17.5765C16.3841 20.7119 16.3841 23.8473 16.3914 26.9827C16.3914 27.234 16.3093 27.283 16.0754 27.2798C15.0608 27.2687 14.0462 27.264 13.0316 27.2798C12.763 27.2798 12.7155 27.196 12.7155 26.9527C12.7345 25.3913 12.7282 23.8315 12.7282 22.2701Z" fill="#616F86"/>
<path d="M12.7329 14.5391C12.732 14.2991 12.7793 14.0614 12.872 13.84C12.9648 13.6187 13.1011 13.4183 13.2728 13.2506C13.4446 13.083 13.6483 12.9516 13.8718 12.8643C14.0953 12.7769 14.3341 12.7354 14.574 12.7422C15.0515 12.7496 15.5072 12.943 15.8442 13.2812C16.1813 13.6194 16.3731 14.0758 16.3788 14.5533C16.3698 15.0379 16.173 15.5001 15.8298 15.8424C15.4866 16.1847 15.0239 16.3804 14.5393 16.3881C14.0547 16.3818 13.5924 16.1837 13.2538 15.837C12.9152 15.4904 12.7279 15.0236 12.7329 14.5391Z" fill="#616F86"/>
</svg>
