<svg width="40" height="40" viewBox="0 0 40 40" fill="none" xmlns="http://www.w3.org/2000/svg">
<circle cx="20" cy="20" r="19.5" stroke="white"/>
<path d="M31 15.1561C30.1732 15.5161 29.2989 15.7543 28.4043 15.8632C29.3483 15.2971 30.0557 14.4063 30.3951 13.3563C29.5081 13.8864 28.537 14.2598 27.5243 14.4603C24.3509 11.0678 18.7791 14.0596 19.8247 18.5911C16.2389 18.4243 12.7803 16.6598 10.5276 13.8536C9.33982 15.8487 9.96765 18.6485 11.9249 19.9054C11.2076 19.8862 10.5057 19.6929 9.87895 19.3422C9.83246 21.4617 11.4317 23.4327 13.5086 23.8152C13.1162 23.9348 12.7089 23.9981 12.2989 24.0029C12.0153 23.9986 11.7325 23.9719 11.453 23.923C12.0146 25.7309 13.7795 27.0447 15.6656 27.0592C14.732 27.7966 13.6627 28.342 12.519 28.6642C11.3752 28.9864 10.1794 29.079 9 28.9368C17.8312 34.5546 29.2432 28.0248 28.7991 17.4951C29.6627 16.8499 30.4075 16.0584 31 15.1561Z" fill="white"/>
</svg>
