<svg xmlns="http://www.w3.org/2000/svg" viewBox="0 0 336.57 105.28"><defs><style>.cls-1{fill:#313e63;}.cls-2{fill:#868a92;}.cls-3{fill:#344165;}.cls-4{fill:#f4f4f5;}.cls-5{fill:#babbc5;}.cls-6{fill:#4b5473;}.cls-7{fill:#fefefe;}</style></defs><g id="Capa_2" data-name="Capa 2"><g id="Capa_1-2" data-name="Capa 1"><path class="cls-1" d="M98.22,24.32c.53-3.39,1.07-6.79,1.59-10.19.59-3.93,1.26-7.85,1.69-11.8C101.7.5,102.78.63,104,.69c1.67.07.89,1.22.77,2-1.56,9.61-3.18,19.21-4.71,28.82-.22,1.33-.65,1.86-2.06,1.86s-2.1-.42-2.36-1.93c-1-6.07-2.2-12.12-3.37-18.17-.19-1-.07-2.2-1.22-3.1-1.3,7-2.59,13.91-3.87,20.8-.23,1.28-.3,2.42-2.23,2.43s-2-1.27-2.18-2.49c-1.64-9.2-3.28-18.39-4.85-27.6C77.78,2.4,76.84,1,78.73.7c1.55-.24,2.57,0,2.83,2,.81,5.91,1.82,11.79,2.79,17.67a7.53,7.53,0,0,0,1.21,3.83c.83-4.41,1.57-8.36,2.31-12.32.54-2.93,1.06-5.87,1.62-8.8C89.7,2,89.41.67,91.33.63S93.22,2,93.46,3.17c1.41,7,2.79,14,4.19,21Z"/><path class="cls-1" d="M122.51,3.51c-2.78,1-5.64.32-8.46.4-1.7,0-2.58.29-2.42,2.26a51.12,51.12,0,0,1,0,6.55c-.08,1.59.56,2.1,2.08,2s3.19,0,4.78,0c1.22,0,1.77.28,1.79,1.65s-.72,1.54-1.85,1.57c-2.17.08-5-1-6.32.43s-.41,4.35-.44,6.6c-.06,4.93,0,4.93,5,4.93,1.49,0,3,.05,4.48,0,1.27-.05,2,.13,2,1.73s-.72,1.76-2,1.74c-3.78,0-7.57-.08-11.35,0-1.55,0-2.07-.44-2.06-2q.09-14.31,0-28.6c0-1.48.34-2.16,2-2.11,3.68.11,7.37.12,11,0,2-.07,2.2.78,1.77,2.33H112.52v.58Z"/><path class="cls-2" d="M128.44,17.2a33.7,33.7,0,0,0,.88,8.27c.63,2.33,1.44,4.75,4.39,5s4.1-2,4.6-4.47c.28-1.41,1-1.69,2.35-1.46,1.78.31,1.24,1.44,1,2.47-1.11,4.39-3.4,6.55-7.2,6.82s-6.9-1.8-8.28-5.93a32.49,32.49,0,0,1,.37-22.17c1.56-4.21,4.94-6.18,8.8-5.61,3.42.5,5.89,3.46,6.61,7.54.27,1.49-.46,1.63-1.5,1.93s-1.75.27-1.94-1c0-.2-.11-.38-.15-.58-.52-2.34-1.3-4.59-4.2-4.61-3.15,0-4,2.5-4.74,4.93a18.28,18.28,0,0,0-.67,3.51C128.57,13.63,128.53,15.42,128.44,17.2Z"/><path class="cls-2" d="M220.18,21.54a7,7,0,0,0-1.78,0c-1.44.38-3.62-1.17-4.22,1.29-.71,2.88,1.12,6.94,3.26,7.71,2.36.85,3.85-.27,4.7-2.37.52-1.29,1-2.53,2.69-1.64s.49,2.09.13,3a6.29,6.29,0,0,1-6.24,4.24c-3,0-5.63-1.06-6.76-4a22.41,22.41,0,0,1,.16-17.1A6.49,6.49,0,0,1,219,8.52c3.28.22,5.21,2.17,6.12,5.22.06.19.13.38.18.57C227.32,21,226.91,21.54,220.18,21.54Zm-2-2.43c1.32-1,3.94,1.37,4.19-1.81.26-3.41-1.57-6-4-5.9-2.23,0-4.05,2.57-4.09,5.68C214.23,20.51,217,18.13,218.16,19.11Z"/><path class="cls-2" d="M196.45,11.61c.55-.62.92-1.06,1.32-1.48A4.91,4.91,0,0,1,203,8.72a4.56,4.56,0,0,1,3.5,4c.87,6.34.2,12.71.37,19.06,0,1.42-.93,1.49-2,1.5-1.27,0-1.44-.72-1.44-1.74,0-4.57.11-9.15,0-13.72-.08-2.32.68-5.35-2.82-6-2.21-.41-3.62,1.63-3.82,5.66-.23,4.46-.2,8.94-.29,13.41,0,1.17.29,2.44-1.66,2.43S193,32.24,193,31c.07-6.37.07-12.73.18-19.09,0-1-.72-2.49,1.22-2.82S196.14,10.31,196.45,11.61Z"/><path class="cls-2" d="M177.77,11.44a28,28,0,0,1,2.07-1.9c3.13-2.3,7.74-.64,8,3.2.37,6.34.17,12.71.23,19.07,0,1.21-.64,1.47-1.7,1.48-1.46,0-1.54-.86-1.54-1.95,0-4.67.09-9.34,0-14-.06-2.26.42-5.37-3-5.46-3.18-.08-3.53,2.78-3.64,5.18-.2,4.56-.18,9.13-.29,13.7,0,1.08.49,2.5-1.52,2.55-2.19.06-1.7-1.46-1.71-2.66,0-6.36,0-12.72,0-19.07,0-1-.56-2.29,1.21-2.53C177.42,8.83,177.82,9.79,177.77,11.44Z"/><path class="cls-2" d="M228.14,21.52a22.24,22.24,0,0,1,1.26-8.33,6.7,6.7,0,0,1,7.17-4.68,7,7,0,0,1,6.19,6c.2,1.07.33,2-1.17,2.16-1.14.16-1.9.1-2.12-1.3-.34-2.13-1.33-4-3.78-3.83-2.66.15-3.22,2.4-3.44,4.53a51.21,51.21,0,0,0,0,10.43c.22,2.06.89,4.12,3.36,4.3s3.52-1.62,3.84-3.76c.21-1.48.82-1.74,2.21-1.48,1.58.29,1.22,1.19,1,2.2-.78,3.75-3,5.86-6.36,6.07s-6.18-1.66-7.28-5.36A19,19,0,0,1,228.14,21.52Z"/><path class="cls-2" d="M246.64,20.71c0-2.09,0-4.17,0-6.26,0-1.26.32-2.72-1.79-2.57-.76,0-1-.58-1-1.23s0-1.43.71-1.45c2.82-.08,1.94-2.13,2-3.63.09-1.25-.32-2.65,1.76-2.72,2.26-.08,1.68,1.51,1.66,2.65,0,2.1-.19,4.1,2.95,3.58.86-.14,1.18.53,1.2,1.34s-.33,1.63-1.37,1.46C250.17,11.44,250,13,250.05,15c.11,3.87,0,7.74,0,11.62,0,1.95.64,3.33,2.92,3.21,1-.05,1.76.07,1.77,1.37a1.78,1.78,0,0,1-1.6,2.08c-3.13.66-6-1.07-6.31-4.25a79.76,79.76,0,0,1-.06-8.33Z"/><path class="cls-1" d="M27.05,97.47c.45,1.78.77,3.6,1.39,5.32.8,2.22-.36,2.23-1.94,2a10.64,10.64,0,0,0-1.9-4c-.75-1.22,1.07-3.83-1.3-3.75-1.46,0-.44,2.49-.71,3.83a1.71,1.71,0,0,0,.1.57c0,.77-.12,1.54-.1,2.3,0,1-.92,1.37-1.48,1.5-.89.21-.68-.92-1-1.42,0-4.84,0-9.69.2-14.52.06-1.31-1.48-3.58,1.5-3.91C26,84.94,28.31,86,28.83,89c.45,2.55.64,5.16-1.64,7.14C26.72,96.53,26.85,97,27.05,97.47Zm-4.74-6.22c1,.84-1,3.11,1.85,3.08,2.36,0,2.32-1.56,2.32-3.22s-.05-3.23-2.35-3.23C21.31,87.88,23.19,90.09,22.31,91.25Z"/><path class="cls-1" d="M282.41,87.72c-.18-1.85.77-2.55,2.5-2.47,2.82.1,5.62.24,6.58,3.67-.16,2.34.35,4.81-1.28,6.87-1.46.72-.66,1.86-.46,2.81.45,2.09,1.38,4.06,1.47,6.23l0,0c-1.85.41-2.71-.37-3-2.21A36.91,36.91,0,0,0,287,98c-.16-.56-.35-1.22-1.14-1.1s-.74.77-.74,1.37c0,1.68-.06,3.36-.05,5,0,.91-.17,1.54-1.28,1.51s-1.22-.72-1.23-1.59c0-1.18-.08-2.37-.12-3.55v-3C282.42,93.69,282.42,90.7,282.41,87.72Zm2.49,3.39c.68,1-1.13,3.17,1.64,3.26,2.23.07,2.58-1.27,2.52-3.1-.05-1.67,0-3.29-2.29-3.41C284.05,87.72,285.37,89.85,284.9,91.11Z"/><path class="cls-1" d="M165.12,10.51a12,12,0,0,1,5.49,7.92c-.18.4,0,1-.64,1.16-.05-.09-.08-.2-.16-.25a.35.35,0,0,0-.25,0c-.29.83-1.51,1.66-1.47,1.9.54,3.17-1.6,5.1-3.12,7.32-1.2.59-1.53-.11-1.67-1.11a8,8,0,0,0,.37-2.81c-.22-.92.13-3-2.12-1.91-2.92-1.23-3.06-1.93-1.07-5.28,2-1.23,3.81,1.33,5.88.2a2.8,2.8,0,0,0-2-1.72c-1.22-.4-2.54.92-3.46-.43,1.22-1.31.29-3.41,1.7-4.65C163.52,11.2,164.54,12.65,165.12,10.51Z"/><path class="cls-1" d="M318.41,100c.22-.74-.6-2,1.13-2.14,1.09-.06,1.34.48,1.33,1.43,0,1.35-.33,3,1.63,3.31a1.54,1.54,0,0,0,1.94-1c.43-1.55.65-3.2-.56-4.5a9.74,9.74,0,0,0-2.45-1.67c-2.63-1.48-3.36-3.79-2.94-6.58.39-2.6,2.53-4,5.27-3.53a4.73,4.73,0,0,1,3.6,5.11c-.12,1-.6,1.09-1.37,1.1s-1.3-.25-1.3-1.18c0-1.23-.05-2.47-1.76-2.55a1.66,1.66,0,0,0-1.9,1.11,3.33,3.33,0,0,0,.72,3.6,16,16,0,0,0,2.47,1.64c2.79,1.67,3.45,4.25,3,7.2a4.19,4.19,0,0,1-4.9,3.71C319.66,104.8,318.41,103.2,318.41,100Z"/><path class="cls-1" d="M2.55,95.28c0,1.49,0,3,0,4.47,0,1.31,0,2.77,1.84,2.82s2-1.25,2.05-2.66c0-.4,0-.79,0-1.19,0-.84.61-.88,1.23-.88s1.1,0,1.14.65c.12,1.77.4,3.61-.94,5.1A4.48,4.48,0,0,1,3,104.85a3.75,3.75,0,0,1-2.89-3.74c-.07-4-.14-7.93,0-11.89.12-2.85,2.27-4.36,5.16-4a4.33,4.33,0,0,1,3.66,4.94c-.07.82-.22,1.32-1.15,1.31-.78,0-1.36-.08-1.33-1.1.05-1.56-.37-2.88-2.32-2.62s-1.49,1.82-1.55,3C2.5,92.31,2.55,93.8,2.55,95.28Z"/><path class="cls-1" d="M312.39,103.85c-1.19,1.71-2.22,1.41-2.84-.37s-.94-3.44-1.4-5.17c-.18-.67-.38-1.43-1.27-1.37s-.86.91-.86,1.58c0,1.59,0,3.18,0,4.76s-.57,2-2,1.18c.18-.23.51-.46.51-.7.07-5.27.12-10.54.11-15.81,0-.55-.54-.37-.9-.24-.52-1.61-.11-2.42,1.76-2.33,2.34.12,5.05-.47,6.27,2.19s1.36,5.6-.69,8.07a2.11,2.11,0,0,0-.53,2.32C311.23,99.91,311.79,101.89,312.39,103.85Zm-6.57-12.61c.82.84-1.12,3.09,1.74,3.11,2.31,0,2.46-1.41,2.44-3.17s0-3.26-2.34-3.33C304.92,87.78,306.36,89.91,305.82,91.24Z"/><path class="cls-1" d="M328.9,95c0-2.49.06-5,0-7.46-.05-1.48.31-2.24,2-2.1a42,42,0,0,0,4.49,0c.92,0,1.22.41,1.22,1.25s-.33,1.3-1.23,1.24a6,6,0,0,0-1.2,0c-1.14.12-3-.59-2.6,1.63.29,1.51-1.66,4.4,2.15,4.17A1.1,1.1,0,0,1,335,94.88c.08,1.16-.63,1.28-1.51,1.26-3.85-.06-1.54,2.83-2,4.32-.55,1.87.83,2.08,2.28,2,.6-.05,1.2,0,1.8,0,.8,0,1,.53.95,1.19s-.2,1.18-1,1.2c-.3,0-.6,0-.9,0-5.77.31-5.77.31-5.77-5.42Z"/><path class="cls-1" d="M295.28,105h-1.73c-.66-2.13,0-4.34-.41-6.48l0-9.59c.69-1.07-1.15-3.14,1.44-3.5,3.73-.51,6.3.47,7.06,2.88a12,12,0,0,1-.1,6.45c-.71.66-1.29,1.78-2.27,1.76-4.44-.13-3.94,2.73-3.56,5.57Zm.49-11.26c-.08.41.1.55.5.46,3,0,3.94-1.41,3.19-4.61-.37-1.56-1.47-1.68-2.73-1.67-1.47,0-1.11,1.14-1.11,2C295.61,91.12,295.72,92.41,295.77,93.7Z"/><path class="cls-1" d="M18.38,104.45l-1.12.53c-2.14-.67-5.13,1.09-6.36-.91-1-1.59-.27-4.24-.28-6.41,0-3.38.08-6.75,0-10.12-.06-1.72.54-2.3,2.21-2.15,1.29.12,2.59,0,3.88,0,.8,0,1.63-.1,1.69,1.11s-.77,1.54-1.73,1.35c-3.39-.69-3.7,1.17-3.55,3.83.09,1.56.53,2.18,2.08,2,.87-.1,1.53.07,1.54,1.22s-.68,1.22-1.54,1.22c-3.78,0-1.53,2.85-2,4.36-.55,1.92.93,2,2.33,1.92S18.75,101.93,18.38,104.45Z"/><path class="cls-1" d="M49,85.27l3.4.13c.62,1.93-.06,2.88-2.1,2.55-2.56-.42-3.35.75-3,3.09.09.68.09,1.37.13,2-.1.39,0,.55.43.44a10.3,10.3,0,0,0,1.46.14c1,0,1.7.14,1.66,1.41s-.9,1-1.66,1.06c-.49,0-1,.08-1.46.12s-.55,0-.4.42v2.4c0,1.46-.14,2.91-.13,4.37,0,1-.38,1.42-1.39,1.37s-1.1-.58-1.1-1.35c0-1.07-.07-2.14-.11-3.21V86.53C45.59,84.38,47.62,86,49,85.27Z"/><path class="cls-1" d="M35.89,103.84a1.39,1.39,0,0,1-1.87.92c-1-.25-.62-1.09-.64-1.7-.07-2.73-.1-5.46-.14-8.19,0-2,0-4,0-6,.09-.39.07-.71-.44-.76S31.68,88,31.1,88c-.92,0-1.16-.53-1.14-1.34s.43-1.22,1.28-1.22c2.17,0,4.34,0,6.5,0,.93,0,1.22.42,1.19,1.24,0,.59,0,1.33-.82,1.27-3.62-.27-2.15,2.29-2.27,4a20.27,20.27,0,0,0,0,5.39A28.14,28.14,0,0,0,35.89,103.84Z"/><path class="cls-1" d="M42.38,105h-2c-.12-3-.23-5.92-.35-8.88l0-5.95c.05-1,.09-2,.15-3,.05-.76-.14-1.62,1.05-1.77C42.65,85.2,43,86,43,87.13V99.67C42.51,101.4,43.48,103.3,42.38,105Z"/><path class="cls-1" d="M315.43,105c-.6-.21-1.18-.43-1.31-1.16,0-5.35.06-10.7.14-16,0-1-.55-2.39,1.33-2.34,1.69,0,1.12,1.36,1.13,2.2,0,5.06,0,10.12,0,15.18C316.76,103.84,316.84,104.85,315.43,105Z"/><path class="cls-1" d="M176.47,37.89c-1,1-2.26.47-3.38.54s-2.11,0-2.13,1.65.63,1.86,2,1.79c.8,0,1.76-.29,2.41.59-.66.92-1.53.6-2.23.56-1.44-.08-2.2.22-2.16,1.92,0,1.53.49,2.07,2.06,2.05,1.19,0,3.48-.56,3.38.53-.14,1.67-2.25.49-3.48.75-2.89.63-4-.62-3.52-3.5a21,21,0,0,0,0-3.27C169.41,36.88,172,35.55,176.47,37.89Z"/><path class="cls-1" d="M158.58,37.55c1,3.19.19,6.45.41,9.67a.84.84,0,0,1-.82,1c-.59,0-.87-.4-1.13-.82a53.87,53.87,0,0,0-5-7.27v8.71c-1.88-2-1.13-3.7-1.25-5.21s0-3.18,0-4.77c0-.66-.18-1.49.76-1.7s1.27.34,1.65,1c1.2,2,2.43,4.06,3.76,6.29,1-1,.39-2.07.86-2.85l.36,3.72h.38Z"/><path class="cls-3" d="M153.23,16.67l-.73.3c-1.11.16-1.3,1.22-1.86,1.9-1.5.3-2.76.84-2.88,2.63-1-.49-.81-1.61-1.27-2.38,0-.65.29-1.37-.4-1.88a10.5,10.5,0,0,1,4.68-6.58c-.08.77,1.41,1.2.46,2.15-.5.5-1.53.9-.48,1.75.9.72,1.06-.32,1.48-.74s.9,0,1.35,0l0,.05.76,1,.33.77C154,15.62,153.06,15.4,153.23,16.67Z"/><path class="cls-1" d="M205.71,47.65c-2.52-3.24-4.45-3.53-6.56-.88-.34-1.27,1.46-8.51,2.31-9.26.67-.59,1.49-.5,1.73.25C204.21,41,205.83,44.11,205.71,47.65Zm-3.85-8.21-1.26,4.21c1,.43,2.31.68,2.61.05C203.9,42.28,202.68,41,201.86,39.44Z"/><path class="cls-1" d="M229.3,38.17c1.69-.68,1.73-.71,2.56.61A37.27,37.27,0,0,0,236,44.64c.11-2.38.23-4.75.35-7.13,0-.06.16-.18.2-.16a2,2,0,0,1,.4.23c-.92,2.36-.27,4.76-.16,7.15l.3-6.68c.06,2.87.12,5.74.16,8.61,0,.57.17,1.32-.55,1.53-.87.25-1.13-.56-1.53-1.11-1.7-2.33-2.37-5.34-4.82-7.16Z"/><path class="cls-1" d="M155.57,25.49c.59.32,1.35.48,1.21,1.41l-.27.47-1,1.81L153.77,31l-.64.06c-.46-2.16-2.16-3.59-3.2-5.4l.14-1.25.24-1.26-.12-.12,1.21.13Z"/><path class="cls-1" d="M205.77,37.67a15.47,15.47,0,0,1,7.71,0c-5.59.64-2.69,4.71-3.35,7.25-.28,1.07.51,3.12-.62,3.08-1.76-.07-.58-2-.8-3.15a15.47,15.47,0,0,1,0-3C208.66,38.77,208.66,38.77,205.77,37.67Z"/><path class="cls-1" d="M168.69,38.14c-4.6-.29-3.47,2.63-3.71,4.92-.17,1.73,1.06,4.68-.86,4.86-1.34.12-.39-3.22-.71-5a2.9,2.9,0,0,1,0-.59c0-3.49,0-3.49-3-4.34C162,36.77,165.8,36.68,168.69,38.14Z"/><path class="cls-1" d="M194.4,46.69c-1.4-2.2-2.81-4.4-4.47-7-.61,3.11.26,5.86-.6,8.42l-.88,0c0-3.43,0-6.86,0-10.28,0-.44.38-.64.82-.69.86-.11,1.26.46,1.6,1.08,1.21,2.15,2.41,4.32,3.61,6.47C193.75,45.34,194.73,46.05,194.4,46.69Z"/><path class="cls-1" d="M180.07,43.51c-.89,1.45.34,3.33-1.61,4.74a89.06,89.06,0,0,1,.12-10.34c.18-1.55,2.21-.69,3.39-.75,1.71-.09,3.44.12,4,2.21l-1.26,0a3.78,3.78,0,0,0-4.55-.73c-1.1.67-.73,2.4-.06,3.66C179.51,42.68,179.44,43.08,180.07,43.51Z"/><path class="cls-1" d="M244.78,40.55c.25,2.43,2.49,4.5,1.61,7.61-2.42-3.71-4.09-4-6.79-1.5-.5-2.39,1.07-4.13,1.56-6.12l.73.8c.1.85-1,1.68-.27,2.4a2.47,2.47,0,0,0,1.94.16c1.21-.29.32-1.27.48-1.92S244.21,40.86,244.78,40.55Z"/><path class="cls-1" d="M222,48.31c-3.28-.89-4.76-4.26-3.53-8,.92-2.82,3-3.78,6-2.74l-.7.74c-2.51-.47-3.74.91-4,3.12-.29,2.44-.46,5,2.85,5.79Z"/><path class="cls-1" d="M194.4,46.69c.33-.64-.65-1.35.1-2,1.59-.47.66-1.77.84-2.67.31-1.58-.46-3.29,1.17-4.82,0,3.46.11,6.92-.06,10.38C196.4,48.59,195.66,48.41,194.4,46.69Z"/><path class="cls-4" d="M162.63,10.81c-1.41,1.24-.48,3.34-1.7,4.65h-.71c-.5-.09-1.16-.34-.94-.84.82-1.92-.68-2.16-1.8-2.72a1.8,1.8,0,0,0,.43-2.33l.05-.68h3.61l0,0c.2.62.71.62,1.22.61h0C162.77,9.93,163.44,10.44,162.63,10.81Z"/><path class="cls-1" d="M222,48.31l.6-1.12c3.62-1.36,4.14-5.41,1.15-8.91l.7-.74c3,1.55,2.71,4.32,2.38,7S224.61,48.25,222,48.31Z"/><path class="cls-1" d="M250.78,47.12c1.46,0,3.76-1,4.06.58.19,1-2.49.33-3.85.6-2.08.4-2.53-.66-2.44-2.51.12-2.47,0-4.95,0-7.42,0-.53.11-1.08.69-1.15.84-.1.89.59.89,1.19,0,2,0,4,0,5.94,0,.94-.4,2,.57,2.77-1.62-.09-1.15-1.35-1.18-2.23-.06-2.25,0-4.49,0-6.74a43.11,43.11,0,0,0-.49,8C249.07,47.47,249.38,48.27,250.78,47.12Z"/><path class="cls-1" d="M148.28,42.78c0,1.47,0,2.95,0,4.42,0,.53-.23,1-.8,1s-.8-.51-.8-1q0-4.56,0-9.14c0-.54.33-1,.91-.84a1.12,1.12,0,0,1,.64.83c.06,1.57,0,3.15,0,4.72Z"/><path class="cls-4" d="M165,28.52c1.52-2.22,3.66-4.15,3.12-7.32,0-.24,1.18-1.07,1.47-1.9a.35.35,0,0,1,.25,0c.08.05.11.16.16.25l0,5.45h0c-.67.17-.66.68-.61,1.21v0c-.6.2-.63.69-.61,1.21v0a.61.61,0,0,0-.61.62v0a.94.94,0,0,0-.61,1.21h0a.54.54,0,0,0-.61.61h0l-1.18.05A1.41,1.41,0,0,0,165,28.52Z"/><path class="cls-1" d="M184.75,39.4l1.26,0c.06.38.32,1,.15,1.13-2.33,2.47-1.1,5,.23,7.72-2,0-2.22-1.31-2.43-2.19-.52-2.21-1.87-2.79-3.89-2.52-.63-.43-.56-.83.07-1.18C182.11,42,185,43.24,184.75,39.4Z"/><path class="cls-1" d="M303.75,87.71c.36-.13.9-.31.9.24,0,5.27,0,10.54-.11,15.81,0,.24-.33.47-.51.7a.23.23,0,0,1-.26-.27c0-.31,0-.62,0-.92V102a8.87,8.87,0,0,0,0-5.3c-.09-.41-.19-.82-.28-1.23.09-.21.17-.42.26-.62.47-.39.45-.77,0-1.15C303.74,91.71,303.75,89.71,303.75,87.71Z"/><path class="cls-4" d="M155.57,25.49c-1.39-.78-2.78-1.55-4.17-2.34,0-.74-.48-1-1.16-1.12-1-1.2,1.27-2,.4-3.16.56-.68.75-1.74,1.86-1.9-1.25,3.24.26,5.36,2.8,7.14C155.58,24.31,155.49,25,155.57,25.49Z"/><path class="cls-1" d="M215.1,48.14V37.3h.69V48.14Z"/><path class="cls-5" d="M153.58,13.84c-.45,0-.92-.44-1.35,0s-.58,1.46-1.48.74c-1.05-.85,0-1.25.48-1.75,1-1-.54-1.38-.46-2.15a2.12,2.12,0,0,1,2.4-1.17C152.76,11,154.31,12.31,153.58,13.84Z"/><path class="cls-1" d="M229.3,38.17l1,1.75c0,2.75.38,5.51-.21,8.22h-.83Z"/><path class="cls-1" d="M241.89,41.34l-.73-.8a4.19,4.19,0,0,1,.23-1.15c.41-.83.23-2.21,1.59-2.21s1.12,1.41,1.51,2.23a5.45,5.45,0,0,1,.29,1.14c-.57.31-.62.88-.74,1.43-.67-.68-.31-1.93-1.36-2.45Z"/><path class="cls-5" d="M160.22,15.46h.71c.92,1.35,2.24,0,3.46.43a2.8,2.8,0,0,1,2,1.72c-2.07,1.13-3.93-1.43-5.88-.2Z"/><path class="cls-3" d="M157.91,9.57a1.8,1.8,0,0,1-.43,2.33.23.23,0,0,0-.21.31l-.45.89,0,.05-.6.14-.6-.21c0-1.18,0-2.36.07-3.54h-.08l.56-.14c.34,0,.63-.09.62-.52l.66,0Z"/><path class="cls-4" d="M155.65,9.54c0,1.18-.05,2.36-.07,3.54a1.39,1.39,0,0,0-1.31.76l-.65.05,0-.05c.73-1.53-.82-2.85-.41-4.35h0Z"/><path class="cls-5" d="M146.09,17.24c.69.51.39,1.23.4,1.88-1,1.68-.39,3.48-.4,5.23l-.3.23C144.89,22.09,143.92,19.6,146.09,17.24Z"/><path class="cls-4" d="M161.55,22.69c2.25-1.13,1.9,1,2.12,1.91a8,8,0,0,1-.37,2.81C162.77,25.82,161.67,24.43,161.55,22.69Z"/><path class="cls-1" d="M122.51,3.51h-10V2.93h10.09Z"/><path class="cls-5" d="M169.94,25l0-5.45c.6-.17.46-.76.64-1.16C171.48,20.74,171.63,23,169.94,25Z"/><path class="cls-4" d="M153.77,31l1.72-1.82c1.66,1.27-1,2.74.19,4a1,1,0,0,1-1.3-.33A2.72,2.72,0,0,0,153.77,31Z"/><path class="cls-1" d="M158.58,37.55v7.76h-.38l-.36-3.72c0-.9,0-1.79,0-2.68,0-.44.07-.88.11-1.32l0,0h.3l.3,0Z"/><path class="cls-1" d="M237.08,38.05l-.3,6.68c-.11-2.39-.76-4.79.16-7.15A.31.31,0,0,1,237.08,38.05Z"/><path class="cls-5" d="M162.63,10.81c.81-.37.14-.88.12-1.32a2,2,0,0,1,2.37,1C164.54,12.65,163.52,11.2,162.63,10.81Z"/><path class="cls-4" d="M157.72,33.87c.72-.87,1.1-1.82,2.73-1.55C159.88,33.34,159.44,34.12,157.72,33.87Z"/><path class="cls-5" d="M153.77,31a2.72,2.72,0,0,1,.61,1.88,3.75,3.75,0,0,1-2.6-1l.27-.35c.45.07.85,0,1.08-.43Z"/><path class="cls-5" d="M155.65,9.54l-2.49,0a2.16,2.16,0,0,1,3.17-.81l-.23.3-.53.56Z"/><path class="cls-5" d="M161.57,8.91h-3.63A2.65,2.65,0,0,1,161.57,8.91Z"/><path class="cls-4" d="M153.23,16.67c-.17-1.27.73-1.05,1.48-1C155,17.06,153.87,16.53,153.23,16.67Z"/><path class="cls-5" d="M165.77,29.86l1.18-.05c-.29.62-.58,1.24-1.46,1.05Z"/><path class="cls-5" d="M147.1,27.5a2.17,2.17,0,0,1-.67-1.75l.21-.16c.64.41.56,1.1.66,1.72Z"/><path class="cls-5" d="M153.62,13.89l.65-.05c0,.34.08.68.11,1Z"/><path class="cls-5" d="M151.78,31.84l-1.13-.72.25-.27,1.15.64Z"/><path class="cls-5" d="M146.43,25.75l-.64-1.17.3-.23a1.36,1.36,0,0,1,.55,1.24Z"/><path class="cls-5" d="M162.76,9.5c-.51,0-1,0-1.22-.61C162.08,8.84,162.6,8.81,162.76,9.5Z"/><path class="cls-1" d="M303.74,93.72c.46.38.48.76,0,1.15Z"/><path class="cls-5" d="M168.74,27.43c0-.52,0-1,.61-1.21C169.4,26.75,169.36,27.24,168.74,27.43Z"/><path class="cls-5" d="M169.34,26.24c-.05-.53-.06-1,.61-1.21C170,25.57,170,26.07,169.34,26.24Z"/><path class="cls-5" d="M167.54,29.22a.94.94,0,0,1,.61-1.21A.94.94,0,0,1,167.54,29.22Z"/><path class="cls-6" d="M158,37.6c0,.44-.08.88-.11,1.32C157.63,38.46,157.43,38,158,37.6Z"/><path class="cls-5" d="M156.75,8.89c0,.43-.28.51-.62.52a3,3,0,0,1,0-.42l.23-.3A.6.6,0,0,1,156.75,8.89Z"/><path class="cls-5" d="M157.91,9.57l-.5-.71a.44.44,0,0,1,.55,0Z"/><path class="cls-4" d="M156.82,13.1l.45-.89Z"/><path class="cls-4" d="M156.18,13.29l.6-.14C156.64,13.45,156.46,13.56,156.18,13.29Z"/><path class="cls-6" d="M158.58,37.54l-.3,0H158l.28-.44Z"/><path class="cls-5" d="M148.78,29.4l-.58-.62.27-.26.58.62Z"/><path class="cls-5" d="M150,30.57l-.64-.56.29-.29.6.6C150.17,30.4,150.09,30.49,150,30.57Z"/><path class="cls-5" d="M147.63,28.16l-.53-.66.2-.19.61.58Z"/><path class="cls-5" d="M150.65,31.12l-.64-.55.24-.25.65.53Z"/><path class="cls-4" d="M156.51,27.37l.27-.47A.62.62,0,0,1,156.51,27.37Z"/><path class="cls-5" d="M166.94,29.82a.54.54,0,0,1,.61-.61Z"/><path class="cls-5" d="M149.37,30c-.19-.21-.39-.41-.59-.61l.27-.26.62.58Z"/><path class="cls-5" d="M148.2,28.78l-.57-.62.27-.27.57.63Z"/><path class="cls-5" d="M168.14,28a.61.61,0,0,1,.61-.62C168.74,27.81,168.57,28,168.14,28Z"/><path class="cls-1" d="M118,85.62c2.28-.65,1.21,1.32,1.66,2.11q0,5.07,0,10.14v3c-.73,1.23,1.17,3.85-1.3,3.82s-.9-2.5-1.13-3.83c-.28-1.59-.07-3.27-.6-5l-2.16,5.63c-.18.46-.35,1-.92,1-.74.08-1-.45-1.25-1a14.19,14.19,0,0,0-2.59-4.67c0,2.13,0,4.26,0,6.38,0,1-.18,1.74-1.45,1.68s-1.15-.84-1.15-1.66c0-5.36,0-10.72,0-16.08,0-.62-.29-1.54.79-1.6s1,.84,1.24,1.44c1.34,3.41,2.64,6.83,4.24,11C115.1,93.41,116.55,89.51,118,85.62Z"/><path class="cls-1" d="M88.86,94.94l-3.13,10-.92-.12c-.4-3.4-.8-6.8-1.22-10.2-.31-2.46-.69-4.91-1-7.38-.09-.73-.39-1.64.89-1.77S85,85.94,85.11,87a40.3,40.3,0,0,0,1.37,7.72l1.46-4.88c.17-.55.27-1.29,1-1.26s.73.81.9,1.37c.4,1.32.83,2.63,1.3,4.12,1.49-2.1,1.06-4.42,1.5-6.55.18-.87-.22-2.14,1.41-2.08s1.13,1.37,1,2.18c-.6,5.22-1.29,10.43-2,15.64-.07.57,0,1.21-1.14,1.59Z"/><path class="cls-1" d="M161.64,104.8c0-5.37.14-10.74-.17-16.09-.16-3,1-3.64,3.53-3.28.79.11,1.58.16,2.38.24,3.1,1.71,2.64,4.62,2.51,7.42-1.79,1.67-.25,2.94.51,4.31.14.8.06,1.77,1.31,1.73l0-.26a1.31,1.31,0,0,0-1.24,1.36c0,.06-.14.12-.14.18a3.2,3.2,0,0,0,.1.42c-.53,3.16-2.65,4.15-5.57,4C163.82,104.83,162.73,104.82,161.64,104.8Zm6.27-5.08c0-1.74,0-3.16-2.19-3.27s-1.91,1.38-1.67,2.51-1.39,3.45,1.54,3.5C167.67,102.5,168,101.14,167.91,99.72Zm-4-8.88c.48,1.09-.92,3.08,1.63,3,2.05,0,2-1.5,2-2.92,0-1.61-.13-3.1-2.25-3C163,88.05,164.44,89.91,163.91,90.84Z"/><path class="cls-1" d="M261.72,102.64c-.34.65.3,1.71-.63,2-1.2.41-1.12-1-1.79-1.46l-3.73-8.52-.45.15v9c-.25,1-1,1.08-1.82.91s-.72-1-.74-1.63c-.06-1.36-.09-2.71-.13-4.06,0-4,.07-7.93.14-11.89,0-.61-.36-1.54.71-1.64.7-.06.91.63,1.16,1.18a67.3,67.3,0,0,0,4.71,8.86c0-2.56-.06-5.12,0-7.67,0-.9-.77-2.39,1.13-2.47s1.22,1.45,1.24,2.35C261.67,92.73,261.68,97.69,261.72,102.64Z"/><path class="cls-1" d="M105.24,95.2c0,1.89.06,3.78,0,5.66A3.92,3.92,0,0,1,101.1,105c-2.59.13-4.39-1.14-4.53-3.69a108.59,108.59,0,0,1,0-12.5c.16-2.57,2-3.73,4.62-3.59a3.88,3.88,0,0,1,4,4c.13,2,0,4,0,6Zm-2.39,0c0-1.78,0-3.57,0-5.35,0-1.28-.58-2.08-2-2.08a1.84,1.84,0,0,0-2,2.05q-.06,5.35,0,10.71a1.9,1.9,0,0,0,2,2.12c1.55,0,2-1,2-2.39C102.86,98.55,102.86,96.86,102.85,95.17Z"/><path class="cls-1" d="M182.5,100c.25-.72-.63-2,1.08-2.19,1.91-.15,1.37,1.26,1.4,2.23,0,1.47.42,2.65,2.17,2.51s1.63-1.45,1.73-2.67c.19-2.27-1.19-3.43-3-4.34a5.81,5.81,0,0,1-3.39-6.09,4.23,4.23,0,0,1,4.74-4.22,4.14,4.14,0,0,1,4.12,4.52c0,.77.2,1.65-1.05,1.71-1,0-1.46-.25-1.46-1.32s-.17-2.25-1.66-2.38a1.67,1.67,0,0,0-1.83.72,3.5,3.5,0,0,0,.06,3.42,4.73,4.73,0,0,0,2.3,1.83,6.26,6.26,0,0,1,3.65,6.57c-.18,3.15-1.69,4.78-4.54,4.72S182.54,103.26,182.5,100Z"/><path class="cls-1" d="M228.09,100c.24-.79-.57-2.09,1.14-2.2,1.92-.12,1.33,1.28,1.39,2.24.07,1.28.26,2.49,1.87,2.51s2-1.19,2.09-2.63c.19-2.31-1.26-3.34-3-4.36-3-1.83-4.17-4.32-3.34-7.17a4.46,4.46,0,0,1,8.71,1.8c-.08.85-.32,1.25-1.21,1.26s-1.28-.27-1.25-1.19c.06-1.29-.21-2.4-1.82-2.52a1.59,1.59,0,0,0-1.88,1.1,3.3,3.3,0,0,0,.67,3.59,16.18,16.18,0,0,0,2.21,1.5,6.71,6.71,0,0,1,3,8.21c-.78,2.42-2.66,3.14-4.94,2.81C229,104.58,228.11,102.62,228.09,100Z"/><path class="cls-1" d="M226.83,99.53c0,4-1.83,5.83-5,5.5-2.76-.29-4.39-2.83-3.93-6,.13-.84.35-1.25,1.25-1.25s1.28.31,1.26,1.2a9.52,9.52,0,0,0,.1,2.07,1.74,1.74,0,0,0,1.92,1.5,1.8,1.8,0,0,0,1.86-1.59c.46-2.44-.46-4.1-2.68-5.35-3.26-1.84-4.33-4.4-3.41-7.36a4.29,4.29,0,0,1,5.4-3,4.55,4.55,0,0,1,3.22,5c-.1.74-.34,1.08-1.06,1.09s-1.45,0-1.41-1c.05-1.39-.09-2.63-1.93-2.69a1.7,1.7,0,0,0-1.92,1.48,3.3,3.3,0,0,0,1.58,3.83C224.83,94.59,227.26,96.25,226.83,99.53Z"/><path class="cls-1" d="M73.47,104.9l-4.72.08a1.52,1.52,0,0,1-.74-1.5C68,98,68,92.6,68,87.15c0-1.25.4-1.66,1.7-1.76,5.42-.41,7.1,1,7,6.34-.06,3.75.4,7.53-.36,11.25l-1.65,1.54Zm1.19-4.16a2.74,2.74,0,0,0,.5.07s.15-.13.15-.2c0-3.62,0-7.24,0-10.85,0-.31-.37-.34-.64-.12a2.64,2.64,0,0,0-3.34-1.72c-1.51.43-.76,1.83-.79,2.78q-.15,4.44,0,8.88c0,1-.69,2.36.75,2.81A2.67,2.67,0,0,0,74.66,100.74Z"/><path class="cls-1" d="M275.91,85.29c1.62.69,3.78-1,5.09,1.12-.07,2.08-1.65,1.45-2.79,1.5s-2.86-.25-2.45,1.78c.3,1.45-1.46,4.14,2,4,1.45-.08,1.52.87,1.69,1.84-.84,1.44-2.68-.1-3.57,1.18-.46,4.94-.47,5,3.72,5.71.83.15,1.24.38,1.22,1.27s-.45,1.22-1.28,1.22c-1.49,0-3-.08-4.46,0s-2.09-.45-2.06-2c.05-3.26-.08-6.51-.13-9.77,0-1.59,0-3.18,0-4.77C272.72,86.14,273.54,85,275.91,85.29Z"/><path class="cls-1" d="M205.3,104.24,200,93.77c0,3.69,0,6.52,0,9.34,0,.79.15,1.65-1.07,1.72s-1.37-.76-1.37-1.74c0-5.27,0-10.54,0-15.8,0-.66-.27-1.57.63-1.78,1.07-.24,1.23.82,1.54,1.49,1.15,2.43,2.22,4.89,3.36,7.31.26.53.32,1.52,1.39,1a5.26,5.26,0,0,0,.53.15c.05,0,.18-.1.18-.15,0-2.7,0-5.41,0-8.11C205.54,92.88,206.47,98.58,205.3,104.24Z"/><path class="cls-1" d="M121.57,87.7c-.1-2.58,1.73-2.49,3.38-2.23,1.47.24,4-1.14,4.2,1.09.2,2.42-2.37,1.07-3.67,1.26-1.52.22-1.56,1.15-1.36,2.1.27,1.27-1,3.06,1.09,3.77.9.3,2.43-.64,2.52,1.18s-1.47,1.17-2.38,1.23c-1.63.1-1.22,1.25-1.26,2.16-.11,2.37-.58,5,3.41,4.2.82-.18,1.88-.24,1.84,1.19s-1.1,1.12-1.94,1.16c-1.18.07-2.37.1-3.56.15-3.36.05-1.49-2.76-2.27-4.12a4.69,4.69,0,0,0,0-2.94A51.13,51.13,0,0,0,121.57,87.7Z"/><path class="cls-1" d="M171.75,98.87l0,.26.15-1.19c.84-4.14-.19-8.37.59-12.52,1.56-.25,2.1.37,2.06,2-.09,4,0,8,0,11.92,0,1.47-.19,3.28,2,3.25,2.07,0,1.78-1.76,1.79-3.11,0-3.78-.05-7.56.05-11.33,0-1-.81-2.73,1.26-2.64s1.1,1.81,1.12,2.77c.12,3.88,0,7.76.08,11.63.05,2.3-.46,4.23-2.87,5a4.51,4.51,0,0,1-5.63-2.17l-.39-2Zm1.83,1.8.27.14V86.71h-.27Z"/><path class="cls-1" d="M245.49,99.21c-.67,2.67.43,3.6,3.06,3.25.88-.12,2.15-.41,2,1.27-.09,1.42-1.18,1-2,1.09-5.35.25-5.35.24-5.75-6.36,0-3.46.23-6.93,0-10.37-.14-2.35.72-3,2.85-2.68a26.71,26.71,0,0,0,3,0c.86,0,1.87-.23,1.92,1.17s-.92,1.22-1.81,1.27c-3.73.24-3.71.26-3.45,4.15.07,1,.13,1.71,1.42,1.7.86,0,2.16-.5,2.17,1.17,0,1.93-1.5,1-2.38,1.24a5.86,5.86,0,0,1-.58.1c-.37-.07-.57,0-.47.44Z"/><path class="cls-1" d="M58.52,95.12c0-2.49.13-5,0-7.45-.14-1.94.63-2.45,2.4-2.27a30.53,30.53,0,0,0,3.58,0c1,0,1.81.07,1.74,1.39s-1,1.19-1.73,1c-3.79-.76-3.63,1.6-3.52,4.15.06,1.28.42,1.81,1.73,1.72.83,0,1.86-.27,1.93,1.16s-.93,1.22-1.8,1.26c-3.53.16-1.27,2.81-1.76,4.25s.25,2.25,1.89,2a16.19,16.19,0,0,1,2.09,0c.67,0,1.11.28,1.17,1s-.28,1.35-1.16,1.36c-1.79,0-3.58,0-5.38,0-1.41,0-1.13-1.1-1.13-1.94C58.51,100.28,58.52,97.7,58.52,95.12Z"/><path class="cls-1" d="M208.72,95V90.85c0-6,0-5.95,6-5.44.83.07,1.62,0,1.68,1.15.08,1.36-.86,1.46-1.77,1.3-3.11-.56-3.64,1-3.44,3.65.12,1.57.35,2.45,2.14,2.21.89-.12,1.52.13,1.52,1.26s-.79,1.15-1.6,1.16c-3.8,0-1.48,2.86-1.93,4.36-.58,1.91.87,2,2.28,1.93.5,0,1,0,1.49,0,.85,0,1.32.29,1.32,1.19s-.45,1.23-1.3,1.22c-1.69,0-3.38,0-5.07,0-1.32,0-1.34-.82-1.34-1.78C208.73,100.37,208.72,97.69,208.72,95Z"/><path class="cls-1" d="M268.34,104.93c-1.09-.11-2.41.1-2.36-1.64,0-4.41.07-8.82.15-13.24,0-1.21-.15-2-1.68-2.13-2.35-.27-2.39-1.34-.51-2.62l4.8,0c1.46.27,3.68-.39,3,2.46-2.5-.08-3.94.75-3.07,3.57Q268.53,98.12,268.34,104.93Z"/><path class="cls-1" d="M195.57,95.14v8c0,.83,0,1.6-1.17,1.65s-1.46-.65-1.46-1.69c0-5.36,0-10.73,0-16.09,0-.8-.06-1.61,1.16-1.65s1.46.66,1.45,1.68C195.55,89.78,195.57,92.46,195.57,95.14Z"/><path class="cls-1" d="M53.78,98.47c.06-1.58.13-3.17.2-4.75.86-1.89.32-3.88.38-5.82,0-1.3.29-2.12,1.8-2,.17,6.16.29,12.31-.06,18.47-1.18,0-1.74-.38-1.74-1.69s.45-2.93-.38-4.3Z"/><path class="cls-1" d="M205.3,104.24c1.17-5.66.24-11.36-.07-17,0,2.7,0,5.41,0,8.11,0,0-.13.16-.18.15a5.26,5.26,0,0,1-.53-.15l0-.71a49.25,49.25,0,0,0,.09-8.5c1.23-.33,2.1-.34,2.08,1.39-.06,5.27,0,10.53,0,15.8C206.7,104.24,206.7,105.28,205.3,104.24Z"/><path class="cls-1" d="M56.16,85.94c-1.51-.16-1.75.66-1.8,2-.06,1.94.48,3.93-.38,5.82l0-8.32,2.25-.07Z"/><path class="cls-1" d="M204.64,86.09a49.25,49.25,0,0,1-.09,8.5c-.61-2.74-.12-5.51-.28-8.27,0-.08,0-.22.08-.25S204.54,86.08,204.64,86.09Z"/><path class="cls-1" d="M54,98.42c.83,1.37.38,2.87.38,4.3s.56,1.74,1.74,1.69c-1.26.85-2.25.92-2.27-1C53.8,101.77,53.93,100.1,54,98.42Z"/><path class="cls-1" d="M303.77,96.72a8.87,8.87,0,0,1,0,5.3A15.22,15.22,0,0,1,303.77,96.72Z"/><path class="cls-1" d="M303.76,103.27c0,.3,0,.61,0,.92C303.77,103.88,303.77,103.58,303.76,103.27Z"/><path class="cls-1" d="M134.23,94.44l-.13-.07a1.08,1.08,0,0,0-.14-.24s-.12,0-.18,0l.33.27-.6,1.39c-.43,2.71.34,5.56-1.13,8.19V87.08c.65.32.67,1.3,1.52,1.25,1.12,2.29,2.25,4.58,3.37,6.88h.67c0-2.54,0-5.09,0-7.63,0-.9-.37-2.13,1.24-2.17s1.28,1.18,1.28,2.1q0,7.73,0,15.46c0,.65.25,1.52-.66,1.75s-1.16-.59-1.44-1.21c-1.09-2.44-2.16-4.88-3.23-7.32C135.16,95.44,135.31,94.62,134.23,94.44Z"/><path class="cls-1" d="M146.67,99.86c.11-.82-.42-2,1.28-2,1.24,0,1.12.83,1.13,1.63,0,1.29-.13,2.7,1.58,3.1a1.61,1.61,0,0,0,2-.85c.59-1.64.78-3.4-.59-4.73-1-.95-2.35-1.49-3.43-2.35-2.14-1.71-2.4-4-1.73-6.49a3.8,3.8,0,0,1,4-2.89A4.29,4.29,0,0,1,155.51,90c0,.7.06,1.42-1,1.48s-1.56-.08-1.5-1.24-.15-2.24-1.59-2.43a1.73,1.73,0,0,0-2,.87,3.11,3.11,0,0,0,.27,3.38A7.59,7.59,0,0,0,152,93.82a6.34,6.34,0,0,1,3.54,6.35c-.18,3.12-1.66,4.84-4.43,4.86S146.63,103.27,146.67,99.86Z"/><path class="cls-1" d="M133.9,88.33c-.85,0-.87-.93-1.52-1.25v16.86c1.47-2.63.7-5.48,1.13-8.19.67,2.53.17,5.11.32,7.66.06,1-.35,1.48-1.39,1.46s-1.27-.68-1.27-1.57q0-8.17,0-16.35c0-.58-.08-1.28.66-1.47s1.07.39,1.32.93S133.66,87.69,133.9,88.33Z"/><path class="cls-1" d="M143.19,89.5c.57-1.34-1.86-2.74,0-4a1,1,0,0,1,1.52.42C145.48,87.54,144,88.36,143.19,89.5Z"/><path class="cls-1" d="M134.23,94.44c1.08.18.93,1,.92,1.76C134.84,95.61,134.54,95,134.23,94.44Z"/><path class="cls-4" d="M148.47,28.52l-.57-.63-.6-.58c-.1-.62,0-1.31-.66-1.72a1.36,1.36,0,0,0-.55-1.24c0-1.75-.59-3.55.4-5.23.46.77.28,1.89,1.27,2.38l0-.05.62.63a2.58,2.58,0,0,0,1.95,1.07l-.24,1.26c-.41.37-.63.77-.14,1.25,1,1.81,2.74,3.24,3.2,5.4-.23.47-.63.5-1.08.43l-1.15-.64-.65-.53-.59-.6-.61-.58Z"/><path class="cls-5" d="M150.31,23.15a2.58,2.58,0,0,1-1.95-1.07l.37-.54-1-.09,0,.05c.12-1.79,1.38-2.33,2.88-2.63.87,1.18-1.43,2-.4,3.16,0,.33,0,.66-.05,1Z"/><path class="cls-7" d="M150.19,23c0-.34,0-.67.05-1,.68.08,1.13.38,1.16,1.12Z"/><path class="cls-5" d="M149.93,25.66c-.49-.48-.27-.88.14-1.25Z"/><path class="cls-1" d="M250.78,47.12c-1.4,1.15-1.71.35-1.71-1a43.11,43.11,0,0,1,.49-8c0,2.25,0,4.49,0,6.74,0,.88-.44,2.14,1.18,2.23Z"/><path class="cls-4" d="M156.1,9a3,3,0,0,0,0,.42l-.56.14Z"/><path class="cls-1" d="M173.58,100.67v-14h.27v14.1Z"/><path class="cls-1" d="M134.11,94.36l-.33-.27c.06,0,.14,0,.18,0a1.08,1.08,0,0,1,.14.24Z"/><path class="cls-3" d="M147.74,21.45l1,.09-.37.54Z"/></g></g></svg>